# xmcd
# 
# Track frame offsets:
#     183
#     20333
#     37023
#     49215
#     71685
#     88253
#     106720
#     124320
#     139765
#     145975
#     171580
#     178740
# 
# Disc length: 2603
# 
# Revision: 4
# Processed by: cddbd v1.5.2PL0 Copyright (c) Steve Scherf et al.
# Submitted via: fre:ac v1.0.31
# 
DISCID=b40a290c
DTITLE=Bette Midler - The Rose
DYEAR=1979
DGENRE=Soundtrack
TTITLE0=Whose Side Are You On
TTITLE1=Midnight In Memphis
TTITLE2=Concert Monologue
TTITLE3=When A Man Loves A Woman
TTITLE4=Sold My Soul To Rock 'N' Roll
TTITLE5=Keep On Rockin'
TTITLE6=Love Me With A Feeling
TTITLE7=Camellia
TTITLE8=Homecoming Monologue
TTITLE9=Stay With Me
TTITLE10=Let Me Call You Sweetheart
TTITLE11=The Rose
EXTD=
EXTT0=
EXTT1=
EXTT2=
EXTT3=
EXTT4=
EXTT5=
EXTT6=
EXTT7=
EXTT8=
EXTT9=
EXTT10=
EXTT11=
PLAYORDER=
